<svg width="15" height="15" viewBox="0 0 15 15" fill="none" xmlns="http://www.w3.org/2000/svg">
<path d="M6.35626 3.12499C6.44963 3.12468 6.54189 3.14528 6.62625 3.1853C6.71061 3.22532 6.78494 3.28373 6.84376 3.35624L9.86251 7.10624C9.95444 7.21808 10.0047 7.35835 10.0047 7.50312C10.0047 7.64788 9.95444 7.78816 9.86251 7.89999L6.73751 11.65C6.63142 11.7776 6.47898 11.8579 6.31371 11.8731C6.14845 11.8884 5.9839 11.8373 5.85626 11.7312C5.72862 11.6252 5.64836 11.4727 5.63312 11.3074C5.61788 11.1422 5.66892 10.9776 5.77501 10.85L8.56876 7.49999L5.86876 4.14999C5.79233 4.05825 5.74378 3.94654 5.72886 3.82807C5.71394 3.7096 5.73326 3.58934 5.78454 3.48151C5.83583 3.37368 5.91693 3.2828 6.01825 3.21961C6.11957 3.15643 6.23686 3.1236 6.35626 3.12499Z" fill="black"/>
</svg>
